<svg xmlns="http://www.w3.org/2000/svg" fill="none" viewBox="0 0 292 248"><g clip-path="url(#a)"><path fill="#D9D9D9" d="M3.642 259.572C1.855 268.31 70.3 284.663 81.503 284.7c0 0 19.029 5.665 70.567 5.837 51.538.171 80.698-9.815 80.698-9.815 29.156-7.746 60.898-13.813 55.599-31.94-5.298-18.126-16.126-18.777-20.877-16.837 3.914-1.943 10.245-9.02 4.259-21.783-5.986-12.763-16.425-12.63-20.896-10.968 2.796-1.388 7.23-8.695 2.601-26.82-4.629-18.124-26.437-23.283-36.763-23.596l-107.17-2.033c-10.881-1.154-36.842.212-53.638 14.912-16.795 14.699-12.135 28.534-6.569 33.303-3.068-.569-8.277-.321-13.663 7.709-5.385 8.031-3.972 19.549-2.593 24.305-4.474 2.5-27.629 23.86-29.416 32.598z"/><path stroke="#000" d="M38.296 233.284c-4.338-3.668-10.478-14.013-3.986-27.838 4.82-10.264 13.136-12.459 16.12-10.482"/><path stroke="#000" d="M3.148 260.911c.604-12.08-7.851 10.686 5.758-10.342 9.87-15.249 21.507-21.282 24.617-23.519m29.966-20.719c-9.519-4.548-26.157-18.038-16.565-35.617 3.732-7.326 18.824-21.783 49.328-21.004 30.504.779 53.466 7.798 61.135 11.211 7.168-5.621 29.764-15.65 62.797-10.799 33.032 4.852 36.976 29.194 34.819 40.759-1.751 9.389-11.344 18.929-24.695 20.239"/><path stroke="#000" d="M264.026 237.836c2.211-2.528 4.668-5.942 6.67-9.774m0 0c6.707-12.838.096-28.803-17.321-31.379m17.321 31.379c15.128 6.395 17.813 11.978 20.41 30.446m-188.331 29.624c-1.912-22.268-1.546-34.708.224-55.566a5.376 5.376 0 0 1 5.377-4.917c3.229.011 5.719 2.844 5.365 6.054-2.244 20.34-2.154 33.432.501 55.316m78.166-.589c2.089-22.566 1.587-33.556-.058-55.048-.175-2.286-2.532-4.07-5.379-4.079-3.196-.011-5.702 2.199-5.429 4.76 2.247 21.081 2.517 33.138-.341 55.45"/><path fill="#80D994" stroke="#000" d="M53.298 41.124A4.239 4.239 0 0 1 57.55 36.9l30.004.1-.107 32.17-6.312-.021c-15.426-.052-27.89-12.599-27.838-28.025z"/><path fill="#FEAFE8" stroke="#000" d="M179.995 165.644l-63.983-.213-.153 46.057 63.982.213.154-46.057z"/><path fill="#FEAFE8" stroke="#000" d="M80.252 40.306c.067-20.159 16.463-36.446 36.621-36.379l62.825.209c20.159.068 36.446 16.464 36.379 36.622l-.389 116.726c-.067 20.158-16.463 36.445-36.621 36.378l-62.826-.209c-20.158-.067-36.445-16.463-36.378-36.621l.389-116.726z"/><path fill="#F1C049" stroke="#000" d="M76.114 38.22c.067-20.159 16.463-36.446 36.621-36.379l69.045.23c20.158.067 36.445 16.463 36.378 36.622l-.103 30.912-142.044-.473.103-30.912z"/><path fill="#FEAFE8" stroke="#000" d="M61.516 115.193c.033-10.029 8.19-18.131 18.218-18.098l1.573.005-.12 36.316-1.574-.005c-10.028-.033-18.13-8.19-18.097-18.218zm175.046.582c.033-10.028-8.069-18.185-18.098-18.218l-3.646-.012-.121 36.316 3.646.012c10.029.033 18.185-8.069 18.219-18.098z"/><path fill="#000" stroke="#000" d="M151.323 26.846c-10.601-.035-19.223 8.53-19.258 19.131l-.016 4.683 38.389.127.016-4.682c.035-10.601-8.53-19.223-19.131-19.259z"/><path fill="#000" d="M134.623 61.536a3.11 3.11 0 1 0 .02-6.22 3.11 3.11 0 0 0-.02 6.22zm16.583.055a3.11 3.11 0 1 0 .02-6.22 3.11 3.11 0 0 0-.02 6.22zm16.587.055a3.11 3.11 0 1 0 .02-6.22 3.11 3.11 0 0 0-.02 6.22z"/><path stroke="#000" d="M158.253 123.807c-.019 5.725-4.211 10.352-9.364 10.335-5.152-.017-9.313-4.672-9.294-10.397m-17.91-74.191l51.693.172c5.247.018 9.486 4.285 9.468 9.532l-.002.731c-.018 5.247-4.285 9.486-9.532 9.468l-51.693-.172.066-19.731z"/><path fill="#fff" stroke="#000" d="M125.093 121.624c11.449.038 20.762-9.213 20.8-20.662.038-11.45-9.213-20.762-20.662-20.8-11.45-.038-20.762 9.212-20.8 20.662-.038 11.449 9.212 20.762 20.662 20.8zm49.753.165c11.449.038 20.762-9.213 20.8-20.662.038-11.45-9.213-20.762-20.662-20.8-11.449-.038-20.762 9.213-20.8 20.662-.038 11.449 9.213 20.762 20.662 20.8z"/><path fill="#000" d="M183.721 96.983a5.183 5.183 0 1 0 .033-10.367 5.183 5.183 0 0 0-.033 10.367zm-48.538 0a5.183 5.183 0 1 0 .033-10.367 5.183 5.183 0 0 0-.033 10.367z"/><path stroke="#000" d="M180.913 167.418c6.87.023 12.458-5.528 12.48-12.397.023-6.87-5.527-12.458-12.397-12.48"/><path fill="#000" d="M180.934 161.2a6.218 6.218 0 0 0 6.24-6.198 6.218 6.218 0 0 0-6.198-6.24 6.218 6.218 0 0 0-6.24 6.198 6.218 6.218 0 0 0 6.198 6.24z"/><path fill="#D9D9D9" d="M147.852 210.974c-8.942-6.304-38.773-20.296-51.456-24.82l13.337 32.536 47 16.962 24.679-8.881c14.596-9.288 36.391-27.216 6.804-24.626-36.984 3.238-37.17 11.08-40.364 8.829z"/><path stroke="#000" d="M106.468 189.549c16.036 7.149 48.549 23.242 50.317 30.418m-8.933-8.993c4.861-1.851 20.635-5.981 35.879-7.723"/></g><defs><clipPath id="a"><path fill="#fff" d="M0 248V0h292v248z"/></clipPath></defs></svg>