<svg fill="none" viewBox="0 0 79 16" xmlns="http://www.w3.org/2000/svg">
<path d="m3.568 3.66 2.387 8.204h.09l2.387-8.205H12L8.16 15.296H3.84L0 3.659h3.568zm9.553 11.636V3.659h8.386v2.546H16.28v2h4.795v2.545H16.28v2h5.204v2.546h-8.363zm2.432-12.66c-.387 0-.715-.128-.983-.386a1.244 1.244 0 0 1-.404-.932c0-.363.135-.674.404-.932.268-.257.596-.386.983-.386.375 0 .695.129.96.386.269.258.403.569.403.932 0 .364-.134.674-.403.932a1.328 1.328 0 0 1-.96.386zm3.613 0c-.386 0-.714-.128-.983-.386a1.244 1.244 0 0 1-.403-.932c0-.363.134-.674.403-.932.27-.257.597-.386.983-.386.375 0 .695.129.96.386.27.258.404.569.404.932 0 .364-.135.674-.404.932a1.328 1.328 0 0 1-.96.386zm3.908 12.66V3.659h5.023c.863 0 1.619.157 2.267.472a3.53 3.53 0 0 1 1.511 1.358c.36.59.54 1.299.54 2.125 0 .833-.186 1.536-.557 2.108-.367.572-.884 1.003-1.551 1.295-.663.292-1.438.438-2.324.438h-3V9h2.364c.37 0 .687-.045.949-.136a1.2 1.2 0 0 0 .607-.45c.144-.204.216-.47.216-.8 0-.334-.072-.605-.216-.813a1.206 1.206 0 0 0-.607-.466c-.262-.102-.578-.153-.95-.153h-1.113v9.114h-3.16zm6.818-5.341 2.91 5.34h-3.433l-2.84-5.34h3.363zm10.142-2.66c-.03-.378-.172-.674-.426-.886-.25-.212-.63-.318-1.142-.318-.326 0-.593.04-.801.12a.964.964 0 0 0-.455.312.772.772 0 0 0-.153.454.746.746 0 0 0 .074.38c.06.11.155.211.284.302.129.087.293.167.494.239.2.072.44.136.716.193l.955.204c.644.137 1.195.317 1.653.54.458.224.833.487 1.125.79.292.3.506.636.642 1.011.14.375.212.785.216 1.228-.004.765-.195 1.413-.574 1.943-.379.53-.92.934-1.625 1.21-.7.277-1.543.415-2.528.415-1.012 0-1.894-.15-2.648-.449-.75-.3-1.333-.76-1.75-1.38-.413-.626-.621-1.425-.625-2.398h3c.019.356.108.655.267.897.159.243.383.426.67.551.292.125.639.188 1.04.188.337 0 .62-.042.847-.125.227-.083.4-.199.517-.347a.818.818 0 0 0 .182-.505.719.719 0 0 0-.176-.466c-.11-.137-.292-.258-.546-.364a5.794 5.794 0 0 0-1.028-.307l-1.16-.25c-1.03-.223-1.842-.596-2.437-1.119-.59-.527-.884-1.244-.88-2.153-.004-.74.193-1.385.59-1.938.402-.557.957-.99 1.665-1.301.712-.31 1.528-.466 2.449-.466.94 0 1.752.157 2.437.472s1.214.757 1.586 1.33c.375.567.564 1.232.568 1.993h-3.023zm4.065-1.09V3.659h10.114v2.546h-3.5v9.09H47.6v-9.09h-3.5zm11.303 9.09V3.66h3.16v4.705h.158l3.5-4.705h3.682L61.97 8.841l4.023 6.455H62.22l-2.614-4.364-1.045 1.364v3h-3.159zm14.46 0h-3.409L70.294 3.66h4.318l3.841 11.636h-3.409l-2.545-8.431h-.091l-2.546 8.431zm-.636-4.59h6.409v2.363h-6.41v-2.364z" fill="#000"/>
</svg>