<svg fill="none" viewBox="0 0 915 396" xmlns="http://www.w3.org/2000/svg"><path d="m-4.5 198.896h271.77c6.554-1.53 7.49-9.946 13.107-9.946 5.618 0 8.426 28.309 15.916 28.309s15.916-38.256 27.15-38.256c11.235 0 7.49 70.391 20.597 70.391s14.043-121.654 25.278-121.654c11.234 0 5.617 183.628 21.532 183.628 15.916 0 2.809-259.3739 23.406-259.3739s1.872 342.0059 23.405 342.0059.936-391.73828 20.597-391.73828m457.242 196.63428h-266.255c-6.553-1.53-7.49-9.946-13.107-9.946s-8.426 28.309-15.915 28.309c-7.49 0-15.916-38.256-27.151-38.256-11.234 0-7.489 70.391-20.596 70.391s-14.043-121.654-25.278-121.654-5.617 183.628-21.533 183.628c-15.915 0-2.809-259.3739-23.405-259.3739-20.597 0-1.873 342.0059-23.406 342.0059-21.532 0-.936-391.73828-20.596-391.73828" stroke="#ffc802" stroke-width="3"/></svg>